<svg xmlns="http://www.w3.org/2000/svg" xmlns:xlink="http://www.w3.org/1999/xlink" version="1.1" x="0px" y="0px" viewBox="0 0 100 125" style="enable-background:new 0 0 100 100;" xml:space="preserve"><path d="M70.4785156,38.8706055c-0.0952148,0.0340576-0.2008667,0.0837402-0.3102417,0.1473999l-5.583313,2.3355103  c-0.3603516,0.1494141-0.75,0.112793-1.0751953-0.1030273C63.1855469,41.034668,63,40.6879883,63,40.2988281V26  c0-0.1907349-0.067627-0.3588867-0.1602783-0.5105591C61.5215454,21.2668457,52.0010376,19,43,19  c-9.0010986,0-18.5217285,2.2668457-19.8397827,6.489563C23.067627,25.6412354,23,25.8092651,23,26v47.8193359  c0,4.8598633,10.3046875,7.4824219,20,7.4824219s20-2.6225586,20-7.4824219V61.0332031  c0-1.0058594,0.6035156-1.8984375,1.5371094-2.2729492l11.4892578-4.6103516  c0.0158081-0.0063477,0.0256958-0.0198364,0.0410156-0.0269165c0.3557129-0.1292725,0.8446655-0.4318237,1.1787109-1.1454468  c0.7177734-1.5336914,0.4384766-4.4648438-0.7294922-7.6494141C75.171875,41.6586914,72.7099609,38.0732422,70.4785156,38.8706055z   M43,21c10.3017578,0,18,2.9038086,18,5.5S53.3017578,32,43,32s-18-2.9038086-18-5.5S32.6982422,21,43,21z M70.4163818,54.2459717  c-0.0571289-0.0163574-0.1136475-0.0354004-0.1732178-0.0413818c-0.5390625-0.4145508-1.7636719-2.1157227-2.0185547-2.9291992  c-0.1640625-0.5273438-0.7285156-0.8198242-1.2519531-0.65625c-0.5273438,0.1645508-0.8212891,0.7255859-0.65625,1.2529297  c0.2495117,0.7995605,1.1275024,2.2244873,2.0073242,3.213623l-4.5307617,1.8181152  c-0.1074829,0.0431519-0.2051392,0.1005249-0.3076782,0.151001c-0.0690308-0.3963013-0.1305542-0.9718018-0.1825562-1.7647705  l-0.0283203-0.394043c-0.0458984-0.550293-0.5195312-0.9628906-1.0791016-0.9135742  c-0.5507812,0.0458984-0.9589844,0.5292969-0.9130859,1.0795898l0.0244141,0.3588867  c0.0956421,1.4598999,0.2199097,2.4160767,0.5215454,3.031311C61.3029785,59.1885376,61,60.0807495,61,61.0332031v12.7861328  c0,1.0232544-1.2180176,2.0919189-3.3100586,3.0131226c-0.1621094-2.3463745-0.5410767-7.9103394-0.590332-9.3510132  c-0.0449219-1.3203125,0.5947266-8.9580078,0.8037109-11.4677734c0.046875-0.550293-0.3623047-1.0341797-0.9130859-1.0800781  c-0.5644531-0.0517578-1.0341797,0.3632812-1.0791016,0.9130859c-0.59375,7.0991211-0.84375,10.7084961-0.8095703,11.703125  c0.0548096,1.6347046,0.5072632,8.1896362,0.6351318,10.0189209c-1.5075073,0.4827881-3.2930298,0.8925171-5.2893066,1.1932373  c-0.2293091-1.2287598-0.671936-3.677124-0.7598877-4.7282715c-0.0117188-0.1489258-0.0224609-0.8823242,0.3662109-4.0620117  c0.0673828-0.5483398-0.3222656-1.0473633-0.8710938-1.1142578c-0.5488281-0.0639648-1.046875,0.3232422-1.1132812,0.8710938  c-0.3984375,3.2543945-0.4042969,4.1103516-0.3740234,4.4716797c0.0933228,1.1164551,0.5254517,3.5278931,0.7659302,4.8196411  c-1.0914917,0.1155396-2.2355347,0.1965332-3.4194946,0.241333c-0.1777344-2.5706787-0.3108521-6.4453735-0.0007324-7.6307983  c0.3916016-1.4892578,0.640625-8.3818359,0.7138672-12.6513672c0.0087891-0.5522461-0.4306641-1.0073242-0.9833984-1.0170898  c-0.5224609,0.0253906-1.0068359,0.4306641-1.0166016,0.9829102c-0.0957031,5.6269531-0.3925781,11.2041016-0.6484375,12.1782227  c-0.4492188,1.7158203-0.1785889,6.5073242-0.0663452,8.1780396c-0.0136108,0-0.0264893,0.0006714-0.0401001,0.0006714  c-2.0201416,0-3.9350586-0.1143799-5.7165527-0.3128662c0.184082-1.8094482,0.6002808-5.9486084,0.6989746-7.4210205  c0.0361328-0.5512695-0.3798828-1.027832-0.9316406-1.0644531c-0.5458984-0.0439453-1.0273438,0.3798828-1.0644531,0.9306641  c-0.093811,1.4057007-0.4998779,5.4543457-0.6864014,7.2867432c-2.0767212-0.3257446-3.9153442-0.7694092-5.4437256-1.2897339  c0.0490723-1.5899658,0.5926514-4.9732666,1.0803223-8.0033569c0.6474609-4.0258789,1.2587891-7.8286133,1.1933594-9.6694336  c-0.0185547-0.5522461-0.5224609-0.9716797-1.0341797-0.9638672c-0.5527344,0.0200195-0.9833984,0.4829102-0.9638672,1.0351562  c0.0585938,1.6450195-0.5664062,5.5268555-1.1699219,9.2807617c-0.4868164,3.0267334-0.9225464,5.7424316-1.0606079,7.5408325  C26.0564575,75.7727661,25,74.7755127,25,73.8193359V29.9122314c0.9293213,0.7174683,2.1414185,1.3449707,3.5599365,1.8778687  c-0.4627686,2.3425903-0.7844238,9.2418213-0.6712646,13.0873413c0.0683594,2.3222656,0.6601562,5.4121094,1.2324219,8.4003906  l0.2802734,1.4741211c0.0898438,0.4804688,0.5097656,0.8154297,0.9814453,0.8154297  c0.0605469,0,0.1230469-0.0053711,0.1855469-0.0170898c0.5429688-0.1020508,0.9003906-0.6245117,0.7978516-1.1674805  l-0.28125-1.480957c-0.5566406-2.9111328-1.1328125-5.9208984-1.1962891-8.0830078  c-0.1185303-3.99646,0.2374268-10.324646,0.5871582-12.4003296c1.460144,0.4192505,3.0625,0.7571411,4.7442627,1.0110474  c-0.0250244,1.5792847,0.0087891,4.3386841,0.0445557,7.2471924c0.0166016,1.3461914,0.0332031,2.7285156,0.0449219,4.0449219  c0.0048828,0.5493164,0.4521484,0.9912109,1,0.9912109c0.0029297,0,0.0058594,0,0.0087891,0  c0.5527344-0.0048828,0.9960938-0.456543,0.9912109-1.0087891c-0.0117188-1.3193359-0.0292969-2.7036133-0.0449219-4.0517578  c-0.0343628-2.7695312-0.0658569-5.3948364-0.0476685-6.9643555C39.1116333,33.8937988,41.0673218,34,43,34  c0.0319214,0,0.0639038-0.0007324,0.0958252-0.0007935c-0.0493774,3.7755127,0.3765259,15.697937,0.6131592,18.7717896  c0.0400391,0.5244141,0.4785156,0.9233398,0.9960938,0.9233398c0.0253906,0,0.0517578-0.0009766,0.078125-0.0029297  c0.5498047-0.0424805,0.9619141-0.5229492,0.9199219-1.0737305c-0.2301636-2.994751-0.6627197-15.1357422-0.6082764-18.65979  c1.4349976-0.055481,2.866333-0.1661377,4.258667-0.3334961c-0.0636597,1.6203613-0.0401611,4.7919922,0.0273438,9.979126  c0.0068359,0.5478516,0.453125,0.9868164,1,0.9868164c0.0039062,0,0.0087891,0,0.0126953,0  c0.5527344-0.0073242,0.9941406-0.4609375,0.9873047-1.0131836c-0.0474854-3.6824341-0.1110229-8.5797729-0.0119629-10.2404175  c1.343811-0.2210693,2.6328125-0.4955444,3.8299561-0.824646c0.0586548,0.7705078,0.1626587,1.9490967,0.3265381,3.7720947  C55.9414062,40.918457,56.5693359,47.921875,56.4130859,49.875c-0.0439453,0.550293,0.3671875,1.0322266,0.9169922,1.0761719  c0.0273438,0.0024414,0.0546875,0.003418,0.0810547,0.003418c0.5166016,0,0.9541016-0.3969727,0.9960938-0.9204102  c0.1699219-2.1220703-0.4423828-8.9462891-0.8896484-13.9287109c-0.151062-1.6848755-0.3046875-3.399231-0.3580322-4.2127075  C58.6982422,31.3381348,60.0101318,30.6764526,61,29.9122314v10.3865967c0,1.0541992,0.5244141,2.0322266,1.4013672,2.6162109  c0.0040894,0.0027466,0.008667,0.0045166,0.0127563,0.0072021c-0.0133667,0.2668457-0.0317383,0.5469971-0.053772,0.8477783  c-0.0917969,1.2338867-0.1953125,2.6328125,0.0966797,3.875c0.1083984,0.4604492,0.5195312,0.7709961,0.9726562,0.7709961  c0.0761719,0,0.1533203-0.0083008,0.2294922-0.0263672c0.5380859-0.1264648,0.8710938-0.6650391,0.7451172-1.2026367  c-0.2216797-0.9433594-0.1308594-2.1791992-0.0498047-3.2695312c0.0130005-0.1734009,0.0230713-0.3344727,0.0340576-0.4990234  c0.328186-0.026001,0.6554565-0.0894165,0.9678955-0.2202148l3.5671387-1.4921265  c-0.1020508,1.5944824,0.2693481,3.7102051,1.0959473,5.9633179c0.7790527,2.1251831,1.9337158,4.2177124,3.2002563,5.4515991  L70.4163818,54.2459717z M75.3789062,52.234375c-0.5029297-0.078125-2.1630859-1.6557617-3.4824219-5.253418  c-1.3137817-3.5842896-1.0662231-5.8359375-0.7944946-6.1860962l0.0542603-0.0227051  c0.4927368,0.0619507,2.1560059,1.6258545,3.4833984,5.2444458C75.9492188,49.5898438,75.7080078,51.8510742,75.3789062,52.234375z   M37.6630859,63.6928711l0.1259766,2.3525391c0.0283203,0.5512695-0.3955078,1.0219727-0.9462891,1.0507812  c-0.0185547,0.0009766-0.0361328,0.0014648-0.0537109,0.0014648c-0.5283203,0-0.9697266-0.4140625-0.9980469-0.9477539  l-0.125-2.3496094c-0.2685547-5.0053711-0.5732422-10.6782227-0.4248047-12.3173828  c0.0507812-0.5498047,0.5263672-0.9448242,1.0869141-0.9052734c0.5498047,0.050293,0.9550781,0.5366211,0.9052734,1.0869141  C37.0976562,53.1591797,37.4111328,59,37.6630859,63.6928711z M51.4580078,49.2944336  c0.1025391,7.8535156,0.0878906,10.7421875-0.0576172,11.4477539c-0.1328125,0.6420898-0.4316406,2.543457-0.7451172,4.7324219  c-0.0712891,0.4985352-0.4990234,0.8583984-0.9892578,0.8583984c-0.046875,0-0.0947266-0.003418-0.1425781-0.0102539  c-0.546875-0.078125-0.9267578-0.5849609-0.8486328-1.1313477c0.3242188-2.2602539,0.625-4.1650391,0.7666016-4.8525391  c0.1494141-0.7802734,0.0595703-7.6953125,0.0166016-11.0180664c-0.0068359-0.5522461,0.4345703-1.0058594,0.9873047-1.0131836  c0.0039062,0,0.0087891,0,0.0126953,0C51.0048828,48.3076172,51.4511719,48.746582,51.4580078,49.2944336z M40.5400391,29.1098633  c2.1425781,0,3.8095703-0.1079102,3.8505859-0.1108398c9.7080078-0.6889648,11.4160156-1.5517578,11.4160156-3.1103516  c0-1.9296875-2.9482422-2.4370117-13.0869141-3.1791992c-5.2402344-0.3808594-10.1669922,1.4619141-11.3378906,2.559082  C31.0429688,25.5859375,30.8720703,25.9375,30.875,26.3134766c0,0,0,0,0,0.0004883  c0.0029297,0.3295898,0.1074219,0.8168945,0.5917969,1.2641602C32.8496094,28.855957,37.2548828,29.1098633,40.5400391,29.1098633z   M42.5732422,24.7045898c3.0595703,0.2236328,8.3242188,0.6088867,10.4921875,1.1933594  c-1.1367188,0.3251953-3.5878906,0.7348633-8.8154297,1.105957c-4.3701172,0.309082-9.3632812-0.0058594-10.9736328-0.6308594  C34.7109375,25.6074219,38.5166016,24.4023438,42.5732422,24.7045898z"/><text x="0" y="115" fill="#000000" font-size="5px" font-weight="bold" font-family="'Helvetica Neue', Helvetica, Arial-Unicode, Arial, Sans-serif">Created by Path Lord</text><text x="0" y="120" fill="#000000" font-size="5px" font-weight="bold" font-family="'Helvetica Neue', Helvetica, Arial-Unicode, Arial, Sans-serif">from the Noun Project</text></svg>